<?xml version="1.0" encoding="UTF-8" standalone="no"?>
<svg width="405px" height="348px" viewBox="0 0 405 348" version="1.1" xmlns="http://www.w3.org/2000/svg" xmlns:xlink="http://www.w3.org/1999/xlink">
    <!-- Generator: Sketch 3.6.1 (26313) - http://www.bohemiancoding.com/sketch -->
    <title>Logo</title>
    <desc>Created with Sketch.</desc>
    <defs>
        <path id="path-1" d="M0.225548902,41.8359618 L34.78802,41.8359618 L34.78802,0.354452817 L0.225548902,0.354452817 L0.225548902,41.8359618 L0.225548902,41.8359618 Z"></path>
    </defs>
    <g id="Homgepage-Wires" stroke="none" stroke-width="1" fill="none" fill-rule="evenodd">
        <g id="Desktop-Retina" transform="translate(-1077.000000, -130.000000)">
            <g id="ATF" transform="translate(0.000000, -5.000000)">
                <g id="Logo" transform="translate(1077.000000, 135.000000)">
                    <path d="M60.8469517,289.9438 L48.3858325,337.703729 L35.1986451,289.9438 L29.648393,289.9438 L16.5547606,337.703729 L4.09364139,289.9438 L-0.00040676087,289.9438 L14.1874124,343.889595 L19.0095625,343.889595 L32.4692797,295.13293 L45.9310306,343.889595 L50.7511469,343.889595 L64.9389661,289.9438 L60.8469517,289.9438 Z" id="Fill-1" fill="#272262"></path>
                    <g id="Group-17" transform="translate(65.604752, 0.037634)">
                        <g id="Group-4" transform="translate(5.578401, 306.004570)">
                            <mask id="mask-2" fill="white">
                                <use xlink:href="#path-1"></use>
                            </mask>
                            <g id="Clip-3"></g>
                            <path d="M31.149544,17.6386692 L31.149544,16.2737511 C30.8465072,12.6956721 29.3903033,9.66478096 26.7849999,7.17497505 C24.1146148,4.75229626 21.0232322,3.53790563 17.5067844,3.53790563 C13.9883029,3.53790563 10.9274274,4.78280859 8.32009021,7.26651203 C5.6517389,9.81327429 4.16706173,12.9377366 3.86402488,16.6378648 L3.86402488,17.6386692 L31.149544,17.6386692 Z M4.95617782,36.1962667 C1.80174727,32.3740891 0.225548902,27.3436234 0.225548902,21.0946988 C0.225548902,14.8498425 1.80174727,9.81327429 4.95617782,5.99313091 C8.10654075,2.23604634 12.2921101,0.354452817 17.5067844,0.354452817 C22.7214588,0.354452817 26.9049943,2.0834847 30.0573911,5.53951431 C33.2097878,8.99554392 34.78802,13.6069737 34.78802,19.3677011 L34.78802,21.0946988 L3.86402488,21.0946988 C3.86402488,26.3712973 5.10667934,30.5860667 7.59198825,33.7390072 C10.079331,36.8939819 13.3822292,38.4704521 17.5067844,38.4704521 C20.6002009,38.4704521 23.3885466,37.6506876 25.8738555,36.0131927 C28.4201786,34.3167073 30.1794193,32.1015123 31.149544,29.3737103 L34.78802,29.3737103 C34.1819463,32.9517892 32.2416969,35.9216557 28.9672719,38.2873782 C25.6928469,40.6531006 21.8713286,41.8369789 17.5067844,41.8369789 C12.2921101,41.8369789 8.10654075,39.9574195 4.95617782,36.1962667 L4.95617782,36.1962667 Z" id="Fill-2" fill="#272262" mask="url(#mask-2)"></path>
                        </g>
                        <path d="M69.9371222,341.926836 C72.4224312,339.866237 73.9376154,337.227937 74.4847088,334.011938 L74.4847088,325.09827 C73.6345785,325.826498 72.0888872,326.432676 69.845601,326.916805 C67.7223093,327.402968 64.9034565,327.797594 61.3870088,328.100683 C58.5376489,328.342748 56.1418273,329.315074 54.201578,331.011559 C52.2613287,332.64702 51.291204,334.591672 51.291204,336.833311 C51.291204,339.138009 52.2918357,341.078593 54.2930992,342.655063 C56.2333485,344.292558 58.5966292,345.110289 61.3870088,345.110289 C64.6004196,345.110289 67.4497795,344.050494 69.9371222,341.926836 M51.655255,344.656672 C48.9258895,342.474023 47.5632406,339.866237 47.5632406,336.833311 C47.5632406,333.920401 48.8953825,331.375673 51.5637338,329.19099 C54.1710709,327.008342 57.4454959,325.734961 61.3870088,325.370847 C65.2064933,325.008767 68.328383,324.402589 70.7547116,323.552312 C73.2420543,322.704069 74.4847088,321.703265 74.4847088,320.549899 L74.4847088,317.09387 C74.4847088,315.092261 73.3925558,313.395775 71.2102838,311.998311 C69.086992,310.604915 66.4796548,309.907199 63.3882722,309.907199 C60.4778982,309.907199 57.9600484,310.574402 55.8387905,311.906774 C53.7765129,313.304239 52.7474079,314.939699 52.7474079,316.819259 L52.7474079,318.822901 L49.2899405,318.822901 L49.2899405,316.457179 C49.2899405,313.849392 50.6546232,311.634197 53.3839887,309.815662 C56.1703006,307.995094 59.5077735,307.085826 63.3882722,307.085826 C67.3907992,307.085826 70.8157257,307.966615 73.6650856,309.724125 C76.5144455,311.48367 77.9401423,313.605293 77.9401423,316.093065 L77.9401423,339.563147 C77.9401423,341.078593 78.2736863,342.382486 78.9407741,343.474828 C79.6078619,344.565135 80.4254513,345.110289 81.3976097,345.110289 C81.6986128,345.110289 81.9711426,345.08181 82.2151991,345.020786 C82.4572218,344.959761 82.6382304,344.868224 82.7602587,344.748209 L82.7602587,346.475207 C81.8511481,346.898311 80.7000148,347.113931 79.3048251,347.113931 C77.9096353,347.113931 76.6974879,346.505719 75.6663491,345.293362 C74.6962244,344.081006 74.212179,342.626585 74.212179,340.928066 C73.484077,342.988665 71.9383857,344.656672 69.5730713,345.930053 C67.2077568,347.203434 64.4783914,347.840125 61.3870088,347.840125 C57.5675242,347.840125 54.3236063,346.778296 51.655255,344.656672" id="Fill-5" fill="#272262"></path>
                        <path d="M91.5940878,346.477648 L95.2325638,346.477648 L95.2325638,292.531853 L91.5940878,292.531853 L91.5940878,346.477648 Z" id="Fill-7" fill="#272262"></path>
                        <path d="M111.160506,345.383272 C109.765316,343.808836 109.069755,341.866218 109.069755,339.563554 L109.069755,310.542263 L103.521537,310.542263 L103.521537,307.722924 L109.069755,307.722924 L109.069755,296.71611 L112.706197,296.71611 L112.706197,307.722924 L117.981886,307.722924 L117.981886,310.542263 L112.706197,310.542263 L112.706197,339.563554 C112.706197,341.079 113.100755,342.380859 113.889871,343.475235 C114.617973,344.565542 115.527084,345.110695 116.619237,345.110695 C117.77037,345.110695 118.709988,344.899143 119.43809,344.476039 L119.43809,347.114338 C118.103914,347.598467 117.072775,347.840532 116.344673,347.840532 C114.34341,347.840532 112.61671,347.022801 111.160506,345.383272" id="Fill-9" fill="#272262"></path>
                        <path d="M127.724825,346.475817 L127.724825,292.530022 L131.363301,292.530022 L131.363301,314.9993 C132.575449,312.393547 134.39367,310.302436 136.819998,308.723931 C139.185313,307.147461 141.760109,306.358209 144.550489,306.358209 C148.188965,306.358209 151.310854,307.723127 153.918192,310.452963 C156.525529,313.121775 157.829197,316.364218 157.829197,320.186396 L157.829197,346.475817 L154.192755,346.475817 L154.192755,320.914623 C154.192755,317.761683 153.251104,315.090837 151.371869,312.908188 C149.492633,310.66655 147.216806,309.543696 144.550489,309.543696 C141.579101,309.543696 138.880242,310.634003 136.455948,312.816652 C133.968605,314.940309 132.272412,317.729136 131.363301,321.185166 L131.363301,346.475817 L127.724825,346.475817 Z" id="Fill-10" fill="#272262"></path>
                        <path d="M171.846787,343.837721 C168.936413,341.413008 167.482243,338.469586 167.482243,335.013556 L170.846155,335.013556 C170.846155,337.621343 171.968815,339.86705 174.212102,341.74661 C176.455388,343.565144 179.152212,344.474412 182.306643,344.474412 C185.945119,344.474412 188.883966,343.654647 191.129286,342.017152 C193.311558,340.320667 194.403711,338.107506 194.403711,335.37767 C194.403711,333.317071 193.250544,331.557526 190.948278,330.101071 C188.641943,328.707675 185.548527,327.826886 181.670062,327.462772 C177.545507,327.098658 174.271082,325.947326 171.846787,324.006742 C169.359444,322.066158 168.118824,319.671958 168.118824,316.820072 C168.118824,313.606107 169.359444,311.12037 171.846787,309.360825 C174.332096,307.603315 177.82007,306.722526 182.306643,306.722526 C186.610173,306.722526 190.037133,307.66434 192.583456,309.543899 C195.190793,311.421424 196.494462,313.941743 196.494462,317.094683 L193.039028,317.094683 C192.613963,314.726927 191.46283,312.87788 189.583595,311.543474 C187.702326,310.211102 185.278031,309.543899 182.306643,309.543899 C179.032218,309.543899 176.424881,310.211102 174.484631,311.543474 C172.542348,312.87788 171.574257,314.637424 171.574257,316.820072 C171.574257,318.880671 172.755898,320.64225 175.121212,322.096671 C177.425512,323.492101 180.516895,324.370856 184.397394,324.732936 C188.458901,325.09705 191.733326,326.313474 194.220669,328.372039 C196.644964,330.434673 197.859145,333.013981 197.859145,336.105897 C197.859145,339.561927 196.433448,342.322275 193.584088,344.384909 C190.795742,346.445508 187.035238,347.476825 182.306643,347.476825 C178.182088,347.476825 174.696147,346.262434 171.846787,343.837721" id="Fill-11" fill="#272262"></path>
                        <path d="M210.60337,345.383272 C209.20818,343.808836 208.512619,341.866218 208.512619,339.563554 L208.512619,310.542263 L202.9644,310.542263 L202.9644,307.722924 L208.512619,307.722924 L208.512619,296.71611 L212.149061,296.71611 L212.149061,307.722924 L217.424749,307.722924 L217.424749,310.542263 L212.149061,310.542263 L212.149061,339.563554 C212.149061,341.079 212.543619,342.380859 213.332735,343.475235 C214.060837,344.565542 214.969947,345.110695 216.0621,345.110695 C217.213234,345.110695 218.152851,344.899143 218.880953,344.476039 L218.880953,347.114338 C217.546778,347.598467 216.515639,347.840532 215.787537,347.840532 C213.786273,347.840532 212.059573,347.022801 210.60337,345.383272" id="Fill-12" fill="#272262"></path>
                        <path d="M246.359684,341.926836 C248.844993,339.866237 250.360177,337.227937 250.90727,334.011938 L250.90727,325.09827 C250.05714,325.826498 248.511449,326.432676 246.268163,326.916805 C244.144871,327.402968 241.326018,327.797594 237.80957,328.100683 C234.96021,328.342748 232.564389,329.315074 230.62414,331.011559 C228.68389,332.64702 227.713766,334.591672 227.713766,336.833311 C227.713766,339.138009 228.714397,341.078593 230.715661,342.655063 C232.65591,344.292558 235.019191,345.110289 237.80957,345.110289 C241.022981,345.110289 243.872341,344.050494 246.359684,341.926836 M228.077816,344.656672 C225.348451,342.474023 223.985802,339.866237 223.985802,336.833311 C223.985802,333.920401 225.317944,331.375673 227.986295,329.19099 C230.593632,327.008342 233.868057,325.734961 237.80957,325.370847 C241.629055,325.008767 244.750945,324.402589 247.177273,323.552312 C249.664616,322.704069 250.90727,321.703265 250.90727,320.549899 L250.90727,317.09387 C250.90727,315.092261 249.815117,313.395775 247.632845,311.998311 C245.509554,310.604915 242.902216,309.907199 239.810834,309.907199 C236.90046,309.907199 234.38261,310.574402 232.261352,311.906774 C230.199074,313.304239 229.169969,314.939699 229.169969,316.819259 L229.169969,318.822901 L225.712502,318.822901 L225.712502,316.457179 C225.712502,313.849392 227.077185,311.634197 229.80655,309.815662 C232.592862,307.995094 235.930335,307.085826 239.810834,307.085826 C243.813361,307.085826 247.238287,307.966615 250.087647,309.724125 C252.937007,311.48367 254.362704,313.605293 254.362704,316.093065 L254.362704,339.563147 C254.362704,341.078593 254.696248,342.382486 255.363336,343.474828 C256.030423,344.565135 256.848013,345.110289 257.820171,345.110289 C258.121174,345.110289 258.393704,345.08181 258.637761,345.020786 C258.879783,344.959761 259.060792,344.868224 259.18282,344.748209 L259.18282,346.475207 C258.27371,346.898311 257.122576,347.113931 255.727387,347.113931 C254.332197,347.113931 253.120049,346.505719 252.088911,345.293362 C251.118786,344.081006 250.634741,342.626585 250.634741,340.928066 C249.906639,342.988665 248.360947,344.656672 245.995633,345.930053 C243.630318,347.203434 240.900953,347.840125 237.80957,347.840125 C233.990086,347.840125 230.746168,346.778296 228.077816,344.656672" id="Fill-13" fill="#272262"></path>
                        <path d="M268.016649,346.475817 L268.016649,292.530022 L271.655125,292.530022 L271.655125,327.826682 L292.391794,307.723127 L296.939381,307.723127 L282.02346,321.915428 L298.668115,346.475817 L294.846596,346.475817 L279.658145,324.370653 L271.655125,332.012974 L271.655125,346.475817 L268.016649,346.475817 Z" id="Fill-14" fill="#272262"></path>
                        <path d="M335.696167,323.643239 L335.696167,322.278321 C335.39313,318.700242 333.936926,315.669351 331.331623,313.179545 C328.661238,310.756866 325.569855,309.542475 322.053407,309.542475 C318.534926,309.542475 315.47405,310.787378 312.866713,313.271082 C310.198362,315.817844 308.713685,318.942306 308.410648,322.642435 L308.410648,323.643239 L335.696167,323.643239 Z M309.502801,342.200836 C306.34837,338.378659 304.772172,333.348193 304.772172,327.099269 C304.772172,320.854412 306.34837,315.817844 309.502801,311.997701 C312.653164,308.240616 316.838733,306.359023 322.053407,306.359023 C327.268082,306.359023 331.451617,308.088054 334.604014,311.544084 C337.756411,315.000114 339.334643,319.611543 339.334643,325.372271 L339.334643,327.099269 L308.410648,327.099269 C308.410648,332.375867 309.653302,336.590636 312.138611,339.743577 C314.625954,342.898552 317.928852,344.475022 322.053407,344.475022 C325.146824,344.475022 327.935169,343.655257 330.420478,342.017762 C332.966801,340.321277 334.726042,338.106082 335.696167,335.37828 L339.334643,335.37828 C338.728569,338.956359 336.78832,341.926225 333.513895,344.291948 C330.23947,346.65767 326.417951,347.841549 322.053407,347.841549 C316.838733,347.841549 312.653164,345.961989 309.502801,342.200836 L309.502801,342.200836 Z" id="Fill-15" fill="#272262"></path>
                        <path d="M142.225037,73.8514268 L71.507626,201.19971 L94.1703078,241.917394 L187.497522,73.8514268 L142.225037,73.8514268 Z M262.782857,0.235351751 L151.185979,201.19971 L173.848661,241.917394 L308.057376,0.235351751 L262.782857,0.235351751 Z M46.0932068,73.8514268 L0.859364326,73.8514268 L54.3362158,170.162571 L76.9561878,129.430648 L46.0932068,73.8514268 Z" id="Fill-16" fill="#272262"></path>
                    </g>
                </g>
            </g>
        </g>
    </g>
</svg>